<svg width="90" height="90" viewBox="0 0 90 90" fill="none" xmlns="http://www.w3.org/2000/svg">
<g clip-path="url(#clip0_470_1667)">
<rect width="90" height="90" rx="40" fill="#FFEF5E"/>
<path d="M14.0791 89.4167L14.2499 49.8179C14.2499 47.81 15.2408 45.901 16.8808 44.6501L40.7974 26.7105C43.2574 24.8672 46.7082 24.8672 49.2024 26.7105L73.1191 44.6172C74.7933 45.868 75.7499 47.777 75.7499 49.8179V89.4167" fill="white"/>
<path d="M48.4166 72.9583H41.5833C38.7474 72.9583 36.4583 75.1637 36.4583 77.8958V89.4167H53.5416V77.8958C53.5416 75.1637 51.2524 72.9583 48.4166 72.9583Z" fill="white"/>
<path d="M36.4583 62.2604H29.6249C27.7458 62.2604 26.2083 60.7792 26.2083 58.9687V54.0312C26.2083 52.2208 27.7458 50.7396 29.6249 50.7396H36.4583C38.3374 50.7396 39.8749 52.2208 39.8749 54.0312V58.9687C39.8749 60.7792 38.3374 62.2604 36.4583 62.2604Z" fill="white"/>
<path d="M60.3749 62.2604H53.5416C51.6624 62.2604 50.1249 60.7792 50.1249 58.9687V54.0312C50.1249 52.2208 51.6624 50.7396 53.5416 50.7396H60.3749C62.2541 50.7396 63.7916 52.2208 63.7916 54.0312V58.9687C63.7916 60.7792 62.2541 62.2604 60.3749 62.2604Z" fill="white"/>
<path d="M68.9166 40.0417L68.8141 30.1667H53.7808" fill="white"/>
<path d="M10.8333 87.9167C10.0048 87.9167 9.33325 88.5882 9.33325 89.4167C9.33325 90.2451 10.0048 90.9167 10.8333 90.9167V87.9167ZM79.1666 90.9167C79.995 90.9167 80.6666 90.2451 80.6666 89.4167C80.6666 88.5882 79.995 87.9167 79.1666 87.9167V90.9167ZM14.2499 49.8179L15.7499 49.8243V49.8179H14.2499ZM16.8808 44.6501L15.9807 43.4501L15.9711 43.4574L16.8808 44.6501ZM40.7974 26.7105L39.8979 25.5101L39.8974 25.5106L40.7974 26.7105ZM49.2024 26.7105L50.1014 25.5097L50.0939 25.5042L49.2024 26.7105ZM73.1191 44.6172L72.2201 45.8179L72.2213 45.8188L73.1191 44.6172ZM36.4583 89.4167H34.9583C34.9583 90.2451 35.6298 90.9167 36.4583 90.9167V89.4167ZM53.5416 89.4167V90.9167C54.37 90.9167 55.0416 90.2451 55.0416 89.4167H53.5416ZM67.4167 40.0572C67.4253 40.8856 68.1038 41.5502 68.9322 41.5416C69.7605 41.533 70.4251 40.8545 70.4165 40.0261L67.4167 40.0572ZM68.8141 30.1667L70.314 30.1511C70.3055 29.3288 69.6364 28.6667 68.8141 28.6667V30.1667ZM53.7808 28.6667C52.9523 28.6667 52.2808 29.3382 52.2808 30.1667C52.2808 30.9951 52.9523 31.6667 53.7808 31.6667V28.6667ZM10.8333 90.9167H79.1666V87.9167H10.8333V90.9167ZM15.5791 89.4232L15.7499 49.8243L12.7499 49.8114L12.5791 89.4102L15.5791 89.4232ZM15.7499 49.8179C15.7499 48.3074 16.4983 46.8283 17.7904 45.8428L15.9711 43.4574C13.9832 44.9736 12.7499 47.3126 12.7499 49.8179H15.7499ZM17.7808 45.8501L41.6975 27.9105L39.8974 25.5106L15.9807 43.4502L17.7808 45.8501ZM41.6969 27.9109C43.6201 26.4698 46.3429 26.4623 48.3109 27.9168L50.0939 25.5042C47.0736 23.272 42.8947 23.2646 39.8979 25.5101L41.6969 27.9109ZM48.3034 27.9112L72.2201 45.8179L74.0181 43.4164L50.1014 25.5098L48.3034 27.9112ZM72.2213 45.8188C73.5214 46.7902 74.2499 48.2563 74.2499 49.8179H77.2499C77.2499 47.2978 76.0651 44.9458 74.0169 43.4155L72.2213 45.8188ZM74.2499 49.8179V89.4167H77.2499V49.8179H74.2499ZM48.4166 71.4583H41.5833V74.4583H48.4166V71.4583ZM41.5833 71.4583C37.9722 71.4583 34.9583 74.2831 34.9583 77.8958H37.9583C37.9583 76.0444 39.5227 74.4583 41.5833 74.4583V71.4583ZM34.9583 77.8958V89.4167H37.9583V77.8958H34.9583ZM36.4583 90.9167H53.5416V87.9167H36.4583V90.9167ZM55.0416 89.4167V77.8958H52.0416V89.4167H55.0416ZM55.0416 77.8958C55.0416 74.2831 52.0277 71.4583 48.4166 71.4583V74.4583C50.4772 74.4583 52.0416 76.0444 52.0416 77.8958H55.0416ZM36.4583 60.7604H29.6249V63.7604H36.4583V60.7604ZM29.6249 60.7604C28.521 60.7604 27.7083 59.8985 27.7083 58.9687H24.7083C24.7083 61.6598 26.9705 63.7604 29.6249 63.7604V60.7604ZM27.7083 58.9687V54.0312H24.7083V58.9687H27.7083ZM27.7083 54.0312C27.7083 53.1015 28.521 52.2396 29.6249 52.2396V49.2396C26.9705 49.2396 24.7083 51.3402 24.7083 54.0312H27.7083ZM29.6249 52.2396H36.4583V49.2396H29.6249V52.2396ZM36.4583 52.2396C37.5622 52.2396 38.3749 53.1015 38.3749 54.0312H41.3749C41.3749 51.3402 39.1127 49.2396 36.4583 49.2396V52.2396ZM38.3749 54.0312V58.9687H41.3749V54.0312H38.3749ZM38.3749 58.9687C38.3749 59.8985 37.5622 60.7604 36.4583 60.7604V63.7604C39.1127 63.7604 41.3749 61.6598 41.3749 58.9687H38.3749ZM60.3749 60.7604H53.5416V63.7604H60.3749V60.7604ZM53.5416 60.7604C52.4377 60.7604 51.6249 59.8985 51.6249 58.9687H48.6249C48.6249 61.6598 50.8872 63.7604 53.5416 63.7604V60.7604ZM51.6249 58.9687V54.0312H48.6249V58.9687H51.6249ZM51.6249 54.0312C51.6249 53.1015 52.4377 52.2396 53.5416 52.2396V49.2396C50.8872 49.2396 48.6249 51.3402 48.6249 54.0312H51.6249ZM53.5416 52.2396H60.3749V49.2396H53.5416V52.2396ZM60.3749 52.2396C61.4788 52.2396 62.2916 53.1015 62.2916 54.0312H65.2916C65.2916 51.3402 63.0293 49.2396 60.3749 49.2396V52.2396ZM62.2916 54.0312V58.9687H65.2916V54.0312H62.2916ZM62.2916 58.9687C62.2916 59.8985 61.4788 60.7604 60.3749 60.7604V63.7604C63.0293 63.7604 65.2916 61.6598 65.2916 58.9687H62.2916ZM70.4165 40.0261L70.314 30.1511L67.3142 30.1822L67.4167 40.0572L70.4165 40.0261ZM68.8141 28.6667H53.7808V31.6667H68.8141V28.6667Z" fill="black"/>
</g>
<rect x="1.5" y="1.5" width="87" height="87" rx="38.5" stroke="black" stroke-width="3"/>
<defs>
<clipPath id="clip0_470_1667">
<rect width="90" height="90" rx="40" fill="white"/>
</clipPath>
</defs>
</svg>
