<svg width="90" height="90" viewBox="0 0 90 90" fill="none" xmlns="http://www.w3.org/2000/svg">
<g clip-path="url(#clip0_470_1659)">
<rect width="90" height="90" rx="40" fill="#B9ABFF"/>
<path d="M45 60C53.0541 60 59.5833 53.4708 59.5833 45.4166C59.5833 37.3625 53.0541 30.8333 45 30.8333C36.9458 30.8333 30.4166 37.3625 30.4166 45.4166C30.4166 53.4708 36.9458 60 45 60Z" fill="white"/>
<path d="M70.0541 89.1666C70.0541 77.8791 58.825 68.75 45 68.75C31.175 68.75 19.9458 77.8791 19.9458 89.1666" fill="white"/>
<path d="M70.0541 89.1666C70.0541 77.8791 58.825 68.75 45 68.75C31.175 68.75 19.9458 77.8791 19.9458 89.1666M59.5833 45.4166C59.5833 53.4708 53.0541 60 45 60C36.9458 60 30.4166 53.4708 30.4166 45.4166C30.4166 37.3625 36.9458 30.8333 45 30.8333C53.0541 30.8333 59.5833 37.3625 59.5833 45.4166Z" stroke="black" stroke-width="3" stroke-linecap="round" stroke-linejoin="round"/>
</g>
<rect x="1.5" y="1.5" width="87" height="87" rx="38.5" stroke="black" stroke-width="3"/>
<defs>
<clipPath id="clip0_470_1659">
<rect width="90" height="90" rx="40" fill="white"/>
</clipPath>
</defs>
</svg>
