<svg width="39" height="40" viewBox="0 0 39 40" fill="none" xmlns="http://www.w3.org/2000/svg">
<path d="M8.24324 21.0255C8.63376 20.635 8.63376 20.0018 8.24324 19.6113C7.85271 19.2208 7.21955 19.2208 6.82902 19.6113L4.4325 22.0078C4.04198 22.3983 4.04198 23.0315 4.4325 23.422C4.82303 23.8126 5.45619 23.8126 5.84672 23.422L8.24324 21.0255ZM4.88919 14.9269C5.44148 14.9269 5.88919 14.4792 5.88919 13.9269C5.88919 13.3746 5.44148 12.9269 4.88919 12.9269H1.5C0.947715 12.9269 0.5 13.3746 0.5 13.9269C0.5 14.4792 0.947715 14.9269 1.5 14.9269H4.88919ZM5.84672 4.43334C5.45619 4.04281 4.82303 4.04281 4.4325 4.43334C4.04198 4.82386 4.04198 5.45703 4.4325 5.84755L6.82902 8.24407C7.21955 8.63459 7.85271 8.63459 8.24324 8.24407C8.63376 7.85355 8.63376 7.22038 8.24324 6.82986L5.84672 4.43334ZM14.9276 1.5C14.9276 0.947715 14.4799 0.5 13.9276 0.5C13.3753 0.5 12.9276 0.947715 12.9276 1.5V4.88919C12.9276 5.44148 13.3753 5.88919 13.9276 5.88919C14.4799 5.88919 14.9276 5.44148 14.9276 4.88919V1.5ZM23.4212 5.84755C23.8117 5.45703 23.8117 4.82386 23.4212 4.43334C23.0307 4.04281 22.3975 4.04281 22.007 4.43334L19.6105 6.82986C19.2199 7.22038 19.2199 7.85355 19.6105 8.24407C20.001 8.63459 20.6341 8.63459 21.0247 8.24407L23.4212 5.84755ZM19.1022 36.607C19.1067 36.6211 19.1115 36.6351 19.1166 36.6489C20.0338 39.1406 23.5244 39.0932 24.4488 36.6496L27.8032 27.7818L35.9918 24.9233C38.4594 24.0619 38.5955 20.5711 36.1267 19.5913C36.1209 19.589 36.1151 19.5868 36.1093 19.5846C36.1018 19.5818 36.0943 19.579 36.0867 19.5764L16.3622 12.7074C14.0887 11.8249 11.8194 14.0393 12.6435 16.3335L19.1022 36.607Z" fill="#EAE4FF" stroke="black" stroke-width="2" stroke-linecap="round" stroke-linejoin="round"/>
</svg>
